Coordinates
version=1
nRows=24
nColumns=24
inDegrees=yes

Units are S.I. units (second, meters, Newtons, ...)
Angles are in degrees.

endheader
time	pelvis_tilt	pelvis_list	pelvis_rotation	pelvis_tx	pelvis_ty	pelvis_tz	hip_flexion_r	hip_adduction_r	hip_rotation_r	knee_angle_r	ankle_angle_r	subtalar_angle_r	mtp_angle_r	hip_flexion_l	hip_adduction_l	hip_rotation_l	knee_angle_l	ankle_angle_l	subtalar_angle_l	mtp_angle_l	lumbar_extension	lumbar_bending	lumbar_rotation
      5.15500000	     -8.47102865	     -2.12415865	      8.60352938	     -1.11693910	     -0.02669973	     -0.32519891	     33.04239627	     -2.30478533	     -7.27832373	    -11.76649834	     -1.99474438	      6.75982065	     13.12832522	     -5.85413857	     -0.96499045	     17.69962148	    -17.90608722	      5.87363750	      0.96413044	     15.06732509	      5.45234804	     -0.25100396	    -10.17901397
      5.16000000	     -8.59770009	     -2.32937738	      8.72744805	     -1.11010272	     -0.02747183	     -0.32451380	     33.04087188	     -2.16024450	     -7.76795624	    -12.20901600	     -2.48452485	      6.75020314	     13.39757706	     -5.75307580	     -1.28505051	     17.37919283	    -18.51944116	      5.55897924	      1.70295434	     15.68564263	      5.83066085	     -0.05336423	    -10.25445590
      5.16500000	     -8.72906881	     -2.47759245	      8.75060568	     -1.10337503	     -0.02821277	     -0.32365717	     33.06072730	     -2.00623456	     -8.02831630	    -12.58521256	     -3.41393718	      6.49147417	     14.55960989	     -5.64428111	     -1.55293604	     16.88005222	    -19.06418347	      4.81258768	      2.22973861	     17.39816242	      6.18076536	      0.09452707	    -10.19104798
      5.17000000	     -8.83835672	     -2.80046613	      8.89563190	     -1.09651832	     -0.02877840	     -0.32305977	     33.03254556	     -1.75762717	     -8.53634986	    -12.96064030	     -4.01627994	      6.44985967	     14.62870450	     -5.51004844	     -1.98574920	     16.71009984	    -19.74015904	      4.42921770	      2.87187544	     17.71393516	      6.57034980	      0.42701234	    -10.30396515
      5.17500000	     -8.97886721	     -3.05755642	      8.87065733	     -1.08987243	     -0.02936584	     -0.32206364	     33.09339217	     -1.44968332	     -8.65085563	    -13.32066151	     -5.02757352	      6.05525877	     15.47470512	     -5.29058161	     -2.38292280	     16.05207203	    -20.41930549	      3.73391705	      3.67485671	     19.26151320	      6.93095194	      0.68512780	    -10.21484947
      5.18000000	     -9.07472620	     -3.42782325	      8.97938858	     -1.08322854	     -0.02975549	     -0.32132381	     33.10395282	     -1.11013924	     -8.98895650	    -13.71766891	     -5.68481700	      5.91954278	     15.61916964	     -5.03965735	     -2.89388330	     15.62107560	    -21.23817790	      3.25074557	      4.61174335	     19.89850481	      7.27230135	      1.06418486	    -10.29172186
      5.18500000	     -9.19694628	     -3.83041672	      8.95881112	     -1.07659167	     -0.03010528	     -0.32039205	     33.17188171	     -0.64025039	     -9.00459007	    -14.12792201	     -6.42538370	      5.58530522	     15.75075046	     -4.74032706	     -3.44844214	     14.97036160	    -22.06736096	      2.63498659	      5.57208338	     20.82972362	      7.63956478	      1.49138945	    -10.24060024
      5.19000000	     -9.30800162	     -4.23894413	      8.84085156	     -1.06991335	     -0.03031601	     -0.31934988	     33.23421458	     -0.07233841	     -8.71319103	    -14.52994707	     -7.29828690	      4.97556687	     15.97169376	     -4.48522337	     -4.01538306	     14.29691510	    -22.78639649	      1.55486117	      6.20675214	     22.59450504	      8.00174101	      1.94653917	    -10.06745922
      5.19500000	     -9.39443667	     -4.68509624	      8.78552571	     -1.06331860	     -0.03042170	     -0.31838445	     33.29377848	      0.50670538	     -8.48555311	    -15.00622289	     -7.88664713	      4.50169947	     15.87139237	     -4.15049816	     -4.64217344	     13.55898895	    -23.68224899	      0.67101664	      7.19595988	     23.74123765	      8.32981946	      2.43319017	     -9.99038276
      5.20000000	     -9.45577181	     -5.13885989	      8.72379824	     -1.05678419	     -0.03045346	     -0.31743500	     33.34345354	      1.11642445	     -8.12663602	    -15.53357600	     -8.30431126	      4.04445845	     15.67119837	     -3.78304219	     -5.29307575	     12.76330445	    -24.67670583	     -0.18750412	      8.34314417	     24.67030120	      8.61765728	      2.93910739	     -9.93741577
      5.20500000	     -9.51735652	     -5.59606045	      8.55687696	     -1.05013966	     -0.03035788	     -0.31633952	     33.38355126	      1.83944361	     -7.48991860	    -16.05292310	     -8.76612219	      3.22318526	     15.04467411	     -3.46412104	     -5.95600998	     11.93677234	    -25.54071837	     -1.55088527	      9.09148634	     26.37165251	      8.91779746	      3.46499364	     -9.74018838
      5.21000000	     -9.53835695	     -6.03151803	      8.43556189	     -1.04364768	     -0.03021020	     -0.31532189	     33.39912368	      2.51902520	     -6.90240241	    -16.62967749	     -9.00624866	      2.57170186	     14.45139800	     -3.09039157	     -6.62091135	     11.06529072	    -26.57398402	     -2.77301266	     10.14249072	     27.61454920	      9.13919013	      3.97037143	     -9.61885611
      5.21500000	     -9.51861823	     -6.44402168	      8.26310313	     -1.03693418	     -0.02993671	     -0.31426327	     33.34197728	      3.22877385	     -6.26608987	    -17.22110498	     -8.92692637	      2.02522261	     13.46860574	     -2.81347022	     -7.28582993	     10.17554833	    -27.48932547	     -4.37972216	     10.99684554	     29.32956261	      9.34996457	      4.46581070	     -9.45676594
      5.22000000	     -9.51435508	     -6.81109187	      8.13105678	     -1.03040693	     -0.02965757	     -0.31320290	     33.29295900	      3.88999389	     -5.59943910	    -17.77241320	     -9.06751878	      1.18347200	     12.86170775	     -2.42459362	     -7.90414982	      9.35213327	    -28.60299417	     -5.77008007	     12.07194146	     30.07541815	      9.53278670	      4.89225531	     -9.32454805
      5.22500000	     -9.46461103	     -7.17875511	      7.95745031	     -1.02369168	     -0.02926322	     -0.31218546	     33.15022086	      4.58629264	     -4.95370728	    -18.29381406	     -8.96358051	      0.44341062	     11.85721402	     -2.12727360	     -8.53462185	      8.51609254	    -29.60175831	     -7.57731463	     12.79154705	     31.39233789	      9.69887395	      5.35328931	     -9.15277807
      5.23000000	     -9.40666008	     -7.45244317	      7.81040377	     -1.01714403	     -0.02886925	     -0.31114042	     32.98381628	      5.18032068	     -4.30344018	    -18.80202060	     -8.83640332	     -0.26297731	     11.19902092	     -1.78173726	     -9.07406652	      7.77119352	    -30.71591467	     -9.25990413	     13.73692147	     32.14674890	      9.80808991	      5.69640185	     -9.01854037
      5.23500000	     -9.32609117	     -7.71077678	      7.65227407	     -1.01060163	     -0.02842116	     -0.31014972	     32.75858610	      5.75942124	     -3.72176267	    -19.25916743	     -8.63414212	     -0.87705688	     10.53841935	     -1.44705036	     -9.59278936	      7.06511940	    -31.83706722	    -11.08542464	     14.46515977	     32.87127296	      9.88507527	      6.03867608	     -8.86544189
      5.24000000	     -9.25052688	     -7.94257860	      7.50166369	     -1.00403542	     -0.02795218	     -0.30917556	     32.49338515	      6.30253682	     -3.21326747	    -19.64890974	     -8.37014742	     -1.44402180	      9.94944138	     -1.09306927	    -10.07314814	      6.45170908	    -32.97087919	    -12.97696289	     15.03152079	     33.40852473	      9.97241032	      6.34466401	     -8.71910237
      5.24500000	     -9.16498217	     -8.15678045	      7.42587811	     -0.99757273	     -0.02747274	     -0.30844440	     32.18694765	      6.74350514	     -2.95237495	    -19.96956217	     -8.04679511	     -1.76917735	      9.85434366	     -0.67643520	    -10.49800238	      5.98930820	    -34.21453700	    -14.76494006	     15.34803337	     33.32179949	     10.04058429	      6.64104741	     -8.65633272
      5.25000000	     -9.10722261	     -8.29600825	      7.25817060	     -0.99115871	     -0.02695396	     -0.30739135	     31.85877383	      7.20956474	     -2.40077492	    -20.22245165	     -7.82741114	     -2.41201399	      9.32886607	     -0.26952894	    -10.85311655	      5.56359172	    -35.36769270	    -16.71611484	     15.72377544	     33.66176790	     10.10533476	      6.84319825	     -8.48026484
      5.25500000	     -9.02070484	     -8.46840879	      7.20420770	     -0.98489237	     -0.02644052	     -0.30665968	     31.48429835	      7.58167402	     -2.23315882	    -20.41155511	     -7.46548153	     -2.61931696	      9.34312750	      0.21744957	    -11.20539250	      5.28647193	    -36.66534830	    -18.46548585	     15.81345382	     33.39854216	     10.13543590	      7.08786376	     -8.44418021
      5.26000000	     -8.95852883	     -8.60776643	      7.12309259	     -0.97869154	     -0.02593456	     -0.30582410	     31.09900386	      7.94039115	     -2.01510557	    -20.53526233	     -7.14178560	     -2.90788535	      9.34439290	      0.74452621	    -11.50789082	      5.05656197	    -37.96409234	    -20.18350438	     15.77931339	     33.10062748	     10.17340272	      7.28069255	     -8.36866989
      5.26500000	     -8.91217343	     -8.73920159	      7.03810488	     -0.97260579	     -0.02543268	     -0.30495911	     30.70540790	      8.28434253	     -1.81765209	    -20.60063455	     -6.83595210	     -3.17110131	      9.37465240	      1.32561514	    -11.78005835	      4.89405758	    -39.28833163	    -21.83248770	     15.59532091	     32.76202898	     10.20705743	      7.46011903	     -8.27469632
      5.27000000	     -8.87663210	     -8.86625084	      6.96434517	     -0.96663465	     -0.02493721	     -0.30410103	     30.30020898	      8.60569063	     -1.66884159	    -20.60979788	     -6.52373167	     -3.38255286	      9.46377396	      1.96448825	    -12.02796585	      4.78435844	    -40.64536693	    -23.38149627	     15.26525965	     32.37645043	     10.23766176	      7.63597629	     -8.18818127
